<svg xmlns="http://www.w3.org/2000/svg" version="1.1" xmlns:xlink="http://www.w3.org/1999/xlink" xmlns:svgjs="http://svgjs.com/svgjs" width="1440" height="560" preserveAspectRatio="none" viewBox="0 0 1440 560"><g mask="url(&quot;#SvgjsMask2332&quot;)" fill="none"><rect width="1440" height="560" x="0" y="0" fill="rgba(46, 0, 255, 1)"></rect><use xlink:href="#SvgjsSymbol2339" x="0" y="0"></use><use xlink:href="#SvgjsSymbol2339" x="720" y="0"></use></g><defs><mask id="SvgjsMask2332"><rect width="1440" height="560" fill="#ffffff"></rect></mask><path d="M-1 0 a1 1 0 1 0 2 0 a1 1 0 1 0 -2 0z" id="SvgjsPath2337"></path><path d="M-3 0 a3 3 0 1 0 6 0 a3 3 0 1 0 -6 0z" id="SvgjsPath2336"></path><path d="M-5 0 a5 5 0 1 0 10 0 a5 5 0 1 0 -10 0z" id="SvgjsPath2333"></path><path d="M2 -2 L-2 2z" id="SvgjsPath2334"></path><path d="M6 -6 L-6 6z" id="SvgjsPath2335"></path><path d="M30 -30 L-30 30z" id="SvgjsPath2338"></path></defs><symbol id="SvgjsSymbol2339"><use xlink:href="#SvgjsPath2333" x="30" y="30" stroke="rgba(85, 5, 197, 1)"></use><use xlink:href="#SvgjsPath2334" x="30" y="90" stroke="rgba(85, 5, 197, 1)"></use><use xlink:href="#SvgjsPath2335" x="30" y="150" stroke="rgba(85, 5, 197, 1)"></use><use xlink:href="#SvgjsPath2335" x="30" y="210" stroke="rgba(85, 5, 197, 1)"></use><use xlink:href="#SvgjsPath2333" x="30" y="270" stroke="rgba(85, 5, 197, 1)"></use><use xlink:href="#SvgjsPath2335" x="30" y="330" stroke="rgba(85, 5, 197, 1)"></use><use xlink:href="#SvgjsPath2336" x="30" y="390" stroke="rgba(85, 5, 197, 1)"></use><use xlink:href="#SvgjsPath2333" x="30" y="450" stroke="rgba(85, 5, 197, 1)"></use><use xlink:href="#SvgjsPath2334" x="30" y="510" stroke="rgba(85, 5, 197, 1)"></use><use xlink:href="#SvgjsPath2334" x="30" y="570" stroke="rgba(85, 5, 197, 1)"></use><use xlink:href="#SvgjsPath2335" x="90" y="30" stroke="rgba(85, 5, 197, 1)"></use><use xlink:href="#SvgjsPath2335" x="90" y="90" stroke="rgba(85, 5, 197, 1)"></use><use xlink:href="#SvgjsPath2333" x="90" y="150" stroke="rgba(85, 5, 197, 1)"></use><use xlink:href="#SvgjsPath2335" x="90" y="210" stroke="rgba(85, 5, 197, 1)"></use><use xlink:href="#SvgjsPath2334" x="90" y="270" stroke="rgba(85, 5, 197, 1)"></use><use xlink:href="#SvgjsPath2336" x="90" y="330" stroke="rgba(85, 5, 197, 1)"></use><use xlink:href="#SvgjsPath2337" x="90" y="390" stroke="rgba(85, 5, 197, 1)"></use><use xlink:href="#SvgjsPath2334" x="90" y="450" stroke="rgba(85, 5, 197, 1)"></use><use xlink:href="#SvgjsPath2335" x="90" y="510" stroke="rgba(85, 5, 197, 1)"></use><use xlink:href="#SvgjsPath2335" x="90" y="570" stroke="rgba(85, 5, 197, 1)"></use><use xlink:href="#SvgjsPath2333" x="150" y="30" stroke="rgba(85, 5, 197, 1)"></use><use xlink:href="#SvgjsPath2335" x="150" y="90" stroke="rgba(85, 5, 197, 1)"></use><use xlink:href="#SvgjsPath2333" x="150" y="150" stroke="rgba(85, 5, 197, 1)"></use><use xlink:href="#SvgjsPath2333" x="150" y="210" stroke="rgba(85, 5, 197, 1)"></use><use xlink:href="#SvgjsPath2335" x="150" y="270" stroke="rgba(85, 5, 197, 1)"></use><use xlink:href="#SvgjsPath2335" x="150" y="330" stroke="rgba(85, 5, 197, 1)"></use><use xlink:href="#SvgjsPath2333" x="150" y="390" stroke="rgba(85, 5, 197, 1)"></use><use xlink:href="#SvgjsPath2335" x="150" y="450" stroke="rgba(85, 5, 197, 1)"></use><use xlink:href="#SvgjsPath2334" x="150" y="510" stroke="rgba(85, 5, 197, 1)"></use><use xlink:href="#SvgjsPath2335" x="150" y="570" stroke="rgba(85, 5, 197, 1)"></use><use xlink:href="#SvgjsPath2335" x="210" y="30" stroke="rgba(85, 5, 197, 1)"></use><use xlink:href="#SvgjsPath2334" x="210" y="90" stroke="rgba(85, 5, 197, 1)"></use><use xlink:href="#SvgjsPath2336" x="210" y="150" stroke="rgba(85, 5, 197, 1)"></use><use xlink:href="#SvgjsPath2334" x="210" y="210" stroke="rgba(85, 5, 197, 1)"></use><use xlink:href="#SvgjsPath2335" x="210" y="270" stroke="rgba(85, 5, 197, 1)"></use><use xlink:href="#SvgjsPath2334" x="210" y="330" stroke="rgba(85, 5, 197, 1)"></use><use xlink:href="#SvgjsPath2333" x="210" y="390" stroke="rgba(85, 5, 197, 1)"></use><use xlink:href="#SvgjsPath2335" x="210" y="450" stroke="rgba(85, 5, 197, 1)"></use><use xlink:href="#SvgjsPath2336" x="210" y="510" stroke="rgba(85, 5, 197, 1)"></use><use xlink:href="#SvgjsPath2335" x="210" y="570" stroke="rgba(85, 5, 197, 1)"></use><use xlink:href="#SvgjsPath2335" x="270" y="30" stroke="rgba(85, 5, 197, 1)"></use><use xlink:href="#SvgjsPath2335" x="270" y="90" stroke="rgba(85, 5, 197, 1)"></use><use xlink:href="#SvgjsPath2335" x="270" y="150" stroke="rgba(85, 5, 197, 1)"></use><use xlink:href="#SvgjsPath2333" x="270" y="210" stroke="rgba(85, 5, 197, 1)"></use><use xlink:href="#SvgjsPath2335" x="270" y="270" stroke="rgba(85, 5, 197, 1)"></use><use xlink:href="#SvgjsPath2333" x="270" y="330" stroke="rgba(85, 5, 197, 1)"></use><use xlink:href="#SvgjsPath2335" x="270" y="390" stroke="rgba(85, 5, 197, 1)"></use><use xlink:href="#SvgjsPath2336" x="270" y="450" stroke="rgba(85, 5, 197, 1)"></use><use xlink:href="#SvgjsPath2333" x="270" y="510" stroke="rgba(85, 5, 197, 1)"></use><use xlink:href="#SvgjsPath2337" x="270" y="570" stroke="rgba(85, 5, 197, 1)"></use><use xlink:href="#SvgjsPath2335" x="330" y="30" stroke="rgba(85, 5, 197, 1)"></use><use xlink:href="#SvgjsPath2335" x="330" y="90" stroke="rgba(85, 5, 197, 1)"></use><use xlink:href="#SvgjsPath2335" x="330" y="150" stroke="rgba(85, 5, 197, 1)"></use><use xlink:href="#SvgjsPath2335" x="330" y="210" stroke="rgba(85, 5, 197, 1)"></use><use xlink:href="#SvgjsPath2333" x="330" y="270" stroke="rgba(85, 5, 197, 1)"></use><use xlink:href="#SvgjsPath2335" x="330" y="330" stroke="rgba(85, 5, 197, 1)"></use><use xlink:href="#SvgjsPath2333" x="330" y="390" stroke="rgba(85, 5, 197, 1)"></use><use xlink:href="#SvgjsPath2334" x="330" y="450" stroke="rgba(85, 5, 197, 1)"></use><use xlink:href="#SvgjsPath2333" x="330" y="510" stroke="rgba(85, 5, 197, 1)"></use><use xlink:href="#SvgjsPath2335" x="330" y="570" stroke="rgba(85, 5, 197, 1)"></use><use xlink:href="#SvgjsPath2333" x="390" y="30" stroke="rgba(85, 5, 197, 1)"></use><use xlink:href="#SvgjsPath2337" x="390" y="90" stroke="rgba(85, 5, 197, 1)"></use><use xlink:href="#SvgjsPath2333" x="390" y="150" stroke="rgba(85, 5, 197, 1)"></use><use xlink:href="#SvgjsPath2335" x="390" y="210" stroke="rgba(85, 5, 197, 1)"></use><use xlink:href="#SvgjsPath2337" x="390" y="270" stroke="rgba(85, 5, 197, 1)"></use><use xlink:href="#SvgjsPath2337" x="390" y="330" stroke="rgba(85, 5, 197, 1)"></use><use xlink:href="#SvgjsPath2333" x="390" y="390" stroke="rgba(85, 5, 197, 1)"></use><use xlink:href="#SvgjsPath2335" x="390" y="450" stroke="rgba(85, 5, 197, 1)"></use><use xlink:href="#SvgjsPath2334" x="390" y="510" stroke="rgba(85, 5, 197, 1)"></use><use xlink:href="#SvgjsPath2333" x="390" y="570" stroke="rgba(85, 5, 197, 1)"></use><use xlink:href="#SvgjsPath2334" x="450" y="30" stroke="rgba(85, 5, 197, 1)"></use><use xlink:href="#SvgjsPath2333" x="450" y="90" stroke="rgba(85, 5, 197, 1)"></use><use xlink:href="#SvgjsPath2333" x="450" y="150" stroke="rgba(85, 5, 197, 1)"></use><use xlink:href="#SvgjsPath2337" x="450" y="210" stroke="rgba(85, 5, 197, 1)"></use><use xlink:href="#SvgjsPath2335" x="450" y="270" stroke="rgba(85, 5, 197, 1)"></use><use xlink:href="#SvgjsPath2333" x="450" y="330" stroke="rgba(85, 5, 197, 1)"></use><use xlink:href="#SvgjsPath2334" x="450" y="390" stroke="rgba(85, 5, 197, 1)"></use><use xlink:href="#SvgjsPath2335" x="450" y="450" stroke="rgba(85, 5, 197, 1)"></use><use xlink:href="#SvgjsPath2335" x="450" y="510" stroke="rgba(85, 5, 197, 1)"></use><use xlink:href="#SvgjsPath2333" x="450" y="570" stroke="rgba(85, 5, 197, 1)"></use><use xlink:href="#SvgjsPath2336" x="510" y="30" stroke="rgba(85, 5, 197, 1)"></use><use xlink:href="#SvgjsPath2334" x="510" y="90" stroke="rgba(85, 5, 197, 1)"></use><use xlink:href="#SvgjsPath2333" x="510" y="150" stroke="rgba(85, 5, 197, 1)"></use><use xlink:href="#SvgjsPath2335" x="510" y="210" stroke="rgba(85, 5, 197, 1)"></use><use xlink:href="#SvgjsPath2333" x="510" y="270" stroke="rgba(85, 5, 197, 1)"></use><use xlink:href="#SvgjsPath2337" x="510" y="330" stroke="rgba(85, 5, 197, 1)"></use><use xlink:href="#SvgjsPath2335" x="510" y="390" stroke="rgba(85, 5, 197, 1)"></use><use xlink:href="#SvgjsPath2336" x="510" y="450" stroke="rgba(85, 5, 197, 1)"></use><use xlink:href="#SvgjsPath2335" x="510" y="510" stroke="rgba(85, 5, 197, 1)"></use><use xlink:href="#SvgjsPath2333" x="510" y="570" stroke="rgba(85, 5, 197, 1)"></use><use xlink:href="#SvgjsPath2334" x="570" y="30" stroke="rgba(85, 5, 197, 1)"></use><use xlink:href="#SvgjsPath2333" x="570" y="90" stroke="rgba(85, 5, 197, 1)"></use><use xlink:href="#SvgjsPath2333" x="570" y="150" stroke="rgba(85, 5, 197, 1)"></use><use xlink:href="#SvgjsPath2335" x="570" y="210" stroke="rgba(85, 5, 197, 1)"></use><use xlink:href="#SvgjsPath2333" x="570" y="270" stroke="rgba(85, 5, 197, 1)"></use><use xlink:href="#SvgjsPath2333" x="570" y="330" stroke="rgba(85, 5, 197, 1)"></use><use xlink:href="#SvgjsPath2337" x="570" y="390" stroke="rgba(85, 5, 197, 1)"></use><use xlink:href="#SvgjsPath2338" x="570" y="450" stroke="rgba(85, 5, 197, 1)" stroke-width="3"></use><use xlink:href="#SvgjsPath2336" x="570" y="510" stroke="rgba(85, 5, 197, 1)"></use><use xlink:href="#SvgjsPath2335" x="570" y="570" stroke="rgba(85, 5, 197, 1)"></use><use xlink:href="#SvgjsPath2333" x="630" y="30" stroke="rgba(85, 5, 197, 1)"></use><use xlink:href="#SvgjsPath2335" x="630" y="90" stroke="rgba(85, 5, 197, 1)"></use><use xlink:href="#SvgjsPath2337" x="630" y="150" stroke="rgba(85, 5, 197, 1)"></use><use xlink:href="#SvgjsPath2334" x="630" y="210" stroke="rgba(85, 5, 197, 1)"></use><use xlink:href="#SvgjsPath2335" x="630" y="270" stroke="rgba(85, 5, 197, 1)"></use><use xlink:href="#SvgjsPath2335" x="630" y="330" stroke="rgba(85, 5, 197, 1)"></use><use xlink:href="#SvgjsPath2335" x="630" y="390" stroke="rgba(85, 5, 197, 1)"></use><use xlink:href="#SvgjsPath2334" x="630" y="450" stroke="rgba(85, 5, 197, 1)"></use><use xlink:href="#SvgjsPath2333" x="630" y="510" stroke="rgba(85, 5, 197, 1)"></use><use xlink:href="#SvgjsPath2337" x="630" y="570" stroke="rgba(85, 5, 197, 1)"></use><use xlink:href="#SvgjsPath2338" x="690" y="30" stroke="rgba(85, 5, 197, 1)" stroke-width="3"></use><use xlink:href="#SvgjsPath2333" x="690" y="90" stroke="rgba(85, 5, 197, 1)"></use><use xlink:href="#SvgjsPath2335" x="690" y="150" stroke="rgba(85, 5, 197, 1)"></use><use xlink:href="#SvgjsPath2338" x="690" y="210" stroke="rgba(85, 5, 197, 1)" stroke-width="3"></use><use xlink:href="#SvgjsPath2337" x="690" y="270" stroke="rgba(85, 5, 197, 1)"></use><use xlink:href="#SvgjsPath2333" x="690" y="330" stroke="rgba(85, 5, 197, 1)"></use><use xlink:href="#SvgjsPath2333" x="690" y="390" stroke="rgba(85, 5, 197, 1)"></use><use xlink:href="#SvgjsPath2336" x="690" y="450" stroke="rgba(85, 5, 197, 1)"></use><use xlink:href="#SvgjsPath2336" x="690" y="510" stroke="rgba(85, 5, 197, 1)"></use><use xlink:href="#SvgjsPath2336" x="690" y="570" stroke="rgba(85, 5, 197, 1)"></use></symbol></svg>